<svg width="56" height="56" viewBox="0 0 56 56" fill="none" xmlns="http://www.w3.org/2000/svg">
<circle cx="28" cy="28" r="27" fill="white" stroke="#5CD58E" stroke-width="2"/>
<path d="M19.9609 27.9258H24.9922V30.9336H19.9609V27.9258ZM19.9609 19.7227H26.2227L26.3594 23.0039H19.9609V19.7227ZM18.8398 19.7227V39.1367H15.0938V19.7227H18.8398ZM34.1512 19.7227H37.0223C40.3218 19.7227 41.9716 21.1354 41.9716 23.9609V27.5156C41.9716 30.1497 40.3218 31.5625 37.0223 31.7539H34.1512V28.4727H36.3387C37.5966 28.4727 38.2255 28.0625 38.2255 27.2422V24.2344C38.2255 23.4141 37.5966 23.0039 36.3387 23.0039H34.1512V19.7227ZM33.0848 19.7227V39.1367H29.3387V19.7227H33.0848Z" fill="#5CD58E"/>
</svg>
