<svg width="36" height="36" viewBox="0 0 56 56" fill="none" xmlns="http://www.w3.org/2000/svg">
<path d="M16.3334 21C17.8805 21 19.3642 20.3854 20.4581 19.2914C21.5521 18.1975 22.1667 16.7137 22.1667 15.1666C22.1667 13.6195 21.5521 12.1358 20.4581 11.0418C19.3642 9.94787 17.8805 9.33329 16.3334 9.33329C14.7863 9.33329 13.3025 9.94787 12.2086 11.0418C11.1146 12.1358 10.5 13.6195 10.5 15.1666C10.5 16.7137 11.1146 18.1975 12.2086 19.2914C13.3025 20.3854 14.7863 21 16.3334 21ZM16.3334 25.6666C14.9545 25.6666 13.5891 25.395 12.3152 24.8674C11.0413 24.3397 9.88375 23.5663 8.90873 22.5912C7.93372 21.6162 7.16029 20.4587 6.63262 19.1848C6.10494 17.9109 5.83335 16.5455 5.83335 15.1666C5.83335 13.7877 6.10494 12.4224 6.63262 11.1484C7.16029 9.87453 7.93372 8.71702 8.90873 7.742C9.88375 6.76699 11.0413 5.99357 12.3152 5.46589C13.5891 4.93822 14.9545 4.66663 16.3334 4.66663C19.1181 4.66663 21.7888 5.77287 23.758 7.742C25.7271 9.71114 26.8334 12.3819 26.8334 15.1666C26.8334 17.9514 25.7271 20.6221 23.758 22.5912C21.7888 24.5604 19.1181 25.6666 16.3334 25.6666V25.6666ZM40.8334 30.3333C42.071 30.3333 43.258 29.8416 44.1332 28.9665C45.0084 28.0913 45.5 26.9043 45.5 25.6666C45.5 24.4289 45.0084 23.242 44.1332 22.3668C43.258 21.4916 42.071 21 40.8334 21C39.5957 21 38.4087 21.4916 37.5335 22.3668C36.6584 23.242 36.1667 24.4289 36.1667 25.6666C36.1667 26.9043 36.6584 28.0913 37.5335 28.9665C38.4087 29.8416 39.5957 30.3333 40.8334 30.3333V30.3333ZM40.8334 35C38.358 35 35.984 34.0166 34.2337 32.2663C32.4834 30.5159 31.5 28.142 31.5 25.6666C31.5 23.1913 32.4834 20.8173 34.2337 19.067C35.984 17.3166 38.358 16.3333 40.8334 16.3333C43.3087 16.3333 45.6827 17.3166 47.433 19.067C49.1834 20.8173 50.1667 23.1913 50.1667 25.6666C50.1667 28.142 49.1834 30.5159 47.433 32.2663C45.6827 34.0166 43.3087 35 40.8334 35ZM46.6667 49V47.8333C46.6667 46.2862 46.0521 44.8025 44.9581 43.7085C43.8642 42.6145 42.3805 42 40.8334 42C39.2863 42 37.8025 42.6145 36.7086 43.7085C35.6146 44.8025 35 46.2862 35 47.8333V49H30.3334V47.8333C30.3334 46.4544 30.6049 45.089 31.1326 43.8151C31.6603 42.5412 32.4337 41.3837 33.4087 40.4087C34.3838 39.4337 35.5413 38.6602 36.8152 38.1326C38.0891 37.6049 39.4545 37.3333 40.8334 37.3333C42.2122 37.3333 43.5776 37.6049 44.8515 38.1326C46.1255 38.6602 47.283 39.4337 48.258 40.4087C49.233 41.3837 50.0064 42.5412 50.5341 43.8151C51.0618 45.089 51.3334 46.4544 51.3334 47.8333V49H46.6667ZM23.3334 49V39.6666C23.3334 37.8101 22.5959 36.0296 21.2831 34.7169C19.9703 33.4041 18.1899 32.6666 16.3334 32.6666C14.4768 32.6666 12.6964 33.4041 11.3836 34.7169C10.0709 36.0296 9.33335 37.8101 9.33335 39.6666V49H4.66669V39.6666C4.66669 36.5724 5.89585 33.605 8.08377 31.417C10.2717 29.2291 13.2392 28 16.3334 28C19.4275 28 22.395 29.2291 24.5829 31.417C26.7709 33.605 28 36.5724 28 39.6666V49H23.3334Z" fill="white"/>
</svg>
