<svg width="69" height="70" viewBox="0 0 69 70" fill="none" xmlns="http://www.w3.org/2000/svg">
<path d="M36.2295 6.95585L44.1331 2L51.2211 5.91503L60.6096 11.1048V21.9552L67.8428 26.5099V44.9955L60.6096 49.0137V58.3906L43.732 68.839L36.2305 64.6862L36.2295 6.95585Z" stroke="#9375E7" stroke-width="2" stroke-miterlimit="10"/>
<path d="M52.772 36.0914L44.9363 31.1355V11.9137L51.2204 5.91992" stroke="#9375E7" stroke-width="2" stroke-miterlimit="10"/>
<path d="M52.0359 26.4126L60.6088 21.959" stroke="#9375E7" stroke-width="2" stroke-miterlimit="10"/>
<path d="M60.6084 39.2385V49.0165" stroke="#9375E7" stroke-width="2" stroke-miterlimit="10"/>
<path d="M43.3291 58.595L52.0357 63.7007" stroke="#9375E7" stroke-width="2" stroke-miterlimit="10"/>
<path d="M52.7729 55.1115V45.5341L43.3291 39.7092" stroke="#9375E7" stroke-width="2" stroke-miterlimit="10"/>
<path d="M50.9421 28.4569C51.6683 28.4569 52.257 27.8682 52.257 27.142C52.257 26.4158 51.6683 25.8271 50.9421 25.8271C50.2159 25.8271 49.6273 26.4158 49.6273 27.142C49.6273 27.8682 50.2159 28.4569 50.9421 28.4569Z" fill="#9375E7" stroke="#9375E7" stroke-width="2" stroke-miterlimit="10"/>
<path d="M53.7056 38.3295C54.4318 38.3295 55.0205 37.7408 55.0205 37.0146C55.0205 36.2884 54.4318 35.6997 53.7056 35.6997C52.9794 35.6997 52.3907 36.2884 52.3907 37.0146C52.3907 37.7408 52.9794 38.3295 53.7056 38.3295Z" fill="#9375E7" stroke="#9375E7" stroke-width="2" stroke-miterlimit="10"/>
<path d="M60.6094 39.7084C61.3356 39.7084 61.9242 39.1197 61.9242 38.3935C61.9242 37.6673 61.3356 37.0786 60.6094 37.0786C59.8832 37.0786 59.2945 37.6673 59.2945 38.3935C59.2945 39.1197 59.8832 39.7084 60.6094 39.7084Z" fill="#9375E7" stroke="#9375E7" stroke-width="2" stroke-miterlimit="10"/>
<path d="M52.7731 57.7413C53.4993 57.7413 54.088 57.1526 54.088 56.4264C54.088 55.7003 53.4993 55.1116 52.7731 55.1116C52.0469 55.1116 51.4583 55.7003 51.4583 56.4264C51.4583 57.1526 52.0469 57.7413 52.7731 57.7413Z" fill="#9375E7" stroke="#9375E7" stroke-width="2" stroke-miterlimit="10"/>
<path d="M42.4573 40.0426C43.1835 40.0426 43.7721 39.4539 43.7721 38.7277C43.7721 38.0015 43.1835 37.4128 42.4573 37.4128C41.7311 37.4128 41.1424 38.0015 41.1424 38.7277C41.1424 39.4539 41.7311 40.0426 42.4573 40.0426Z" fill="#9375E7" stroke="#9375E7" stroke-width="2" stroke-miterlimit="10"/>
<path d="M42.3025 59.0983C43.0287 59.0983 43.6174 58.5096 43.6174 57.7834C43.6174 57.0572 43.0287 56.4685 42.3025 56.4685C41.5763 56.4685 40.9876 57.0572 40.9876 57.7834C40.9876 58.5096 41.5763 59.0983 42.3025 59.0983Z" fill="#9375E7" stroke="#9375E7" stroke-width="2" stroke-miterlimit="10"/>
<path d="M32.6133 6.95585L24.7098 2L17.6217 5.91503L8.23324 11.1048V21.9552L1 26.5099V44.9955L8.23324 49.0137V58.3906L25.1108 68.839L32.6124 64.6862L32.6133 6.95585Z" stroke="white" stroke-width="2" stroke-miterlimit="10"/>
<path d="M16.0712 36.0914L23.9069 31.1355V11.9137L17.6229 5.91992" stroke="white" stroke-width="2" stroke-miterlimit="10"/>
<path d="M16.8073 26.4126L8.23438 21.959" stroke="white" stroke-width="2" stroke-miterlimit="10"/>
<path d="M8.23438 39.2385V49.0165" stroke="white" stroke-width="2" stroke-miterlimit="10"/>
<path d="M25.514 58.595L16.8074 63.7007" stroke="white" stroke-width="2" stroke-miterlimit="10"/>
<path d="M16.0712 55.1115V45.5341L25.515 39.7092" stroke="white" stroke-width="2" stroke-miterlimit="10"/>
<path d="M17.9017 28.4569C18.6279 28.4569 19.2165 27.8682 19.2165 27.142C19.2165 26.4158 18.6279 25.8271 17.9017 25.8271C17.1755 25.8271 16.5868 26.4158 16.5868 27.142C16.5868 27.8682 17.1755 28.4569 17.9017 28.4569Z" fill="white" stroke="white" stroke-width="2" stroke-miterlimit="10"/>
<path d="M15.1382 38.3295C15.8644 38.3295 16.4531 37.7408 16.4531 37.0146C16.4531 36.2884 15.8644 35.6997 15.1382 35.6997C14.4121 35.6997 13.8234 36.2884 13.8234 37.0146C13.8234 37.7408 14.4121 38.3295 15.1382 38.3295Z" fill="white" stroke="white" stroke-width="2" stroke-miterlimit="10"/>
<path d="M8.23528 39.7084C8.96147 39.7084 9.55016 39.1197 9.55016 38.3935C9.55016 37.6673 8.96147 37.0786 8.23528 37.0786C7.5091 37.0786 6.92041 37.6673 6.92041 38.3935C6.92041 39.1197 7.5091 39.7084 8.23528 39.7084Z" fill="white" stroke="white" stroke-width="2" stroke-miterlimit="10"/>
<path d="M16.0712 57.7413C16.7974 57.7413 17.3861 57.1526 17.3861 56.4264C17.3861 55.7003 16.7974 55.1116 16.0712 55.1116C15.345 55.1116 14.7563 55.7003 14.7563 56.4264C14.7563 57.1526 15.345 57.7413 16.0712 57.7413Z" fill="white" stroke="white" stroke-width="2" stroke-miterlimit="10"/>
<path d="M26.3865 40.0426C27.1127 40.0426 27.7014 39.4539 27.7014 38.7277C27.7014 38.0015 27.1127 37.4128 26.3865 37.4128C25.6603 37.4128 25.0717 38.0015 25.0717 38.7277C25.0717 39.4539 25.6603 40.0426 26.3865 40.0426Z" fill="white" stroke="white" stroke-width="2" stroke-miterlimit="10"/>
<path d="M26.5413 59.0983C27.2675 59.0983 27.8562 58.5096 27.8562 57.7834C27.8562 57.0572 27.2675 56.4685 26.5413 56.4685C25.8151 56.4685 25.2264 57.0572 25.2264 57.7834C25.2264 58.5096 25.8151 59.0983 26.5413 59.0983Z" fill="white" stroke="white" stroke-width="2" stroke-miterlimit="10"/>
</svg>
