<svg width="56" height="56" viewBox="0 0 56 56" fill="none" xmlns="http://www.w3.org/2000/svg">
<circle cx="28" cy="28" r="27" fill="white" stroke="#F2CA6B" stroke-width="2"/>
<path d="M28.9219 19.1758V39.1367L25.1758 39V30.8652L25.1484 30.0312L28.9219 19.1758ZM21.5664 38.5898H18.4492L12.1602 19.7227H15.6191L20.0078 32.2188L24.3965 19.7227H27.8418L21.5664 38.5898ZM14.8398 29.9629V39L11.0938 39.1367V19.1758L14.8398 29.9629ZM36.7138 19.7227H39.5848C42.8843 19.7227 44.5341 21.1354 44.5341 23.9609V27.5156C44.5341 30.1497 42.8843 31.5625 39.5848 31.7539H36.7138V28.4727H38.9013C40.1591 28.4727 40.788 28.0625 40.788 27.2422V24.2344C40.788 23.4141 40.1591 23.0039 38.9013 23.0039H36.7138V19.7227ZM35.6473 19.7227V39.1367H31.9013V19.7227H35.6473Z" fill="#F2CA6B"/>
</svg>
