<svg width="38" height="38" viewBox="0 0 38 38" fill="none" xmlns="http://www.w3.org/2000/svg">
<path fill-rule="evenodd" clip-rule="evenodd" d="M1.2473 0.164086C0.804568 0.361708 0.293294 0.897923 0.126393 1.3396C0.0392009 1.57024 0 7.04997 0 19.0094C0 33.4654 0.027203 36.4085 0.163575 36.7271C0.361361 37.1893 0.889028 37.7018 1.34411 37.8736C1.57326 37.9602 5.94558 38 15.2348 38C28.7554 38 28.7924 37.9993 29.3054 37.7511C30.1221 37.3558 30.4104 36.75 30.4104 35.4291C30.4104 34.2674 30.3118 34.0229 29.7927 33.8978C29.544 33.8379 29.404 33.8885 29.169 34.1235C28.8992 34.3932 28.8661 34.5219 28.8661 35.2987C28.8661 35.8188 28.8086 36.2285 28.7235 36.3136C28.5166 36.5204 1.89376 36.5204 1.68683 36.3136C1.47965 36.1064 1.47965 1.88936 1.68683 1.68224C1.79552 1.57357 4.26588 1.53972 12.081 1.53972H22.3326V4.55951V7.57942L22.6456 7.8255C22.9432 8.05958 23.104 8.07169 25.9124 8.07169H28.8661L28.8679 11.1892C28.8698 14.6836 28.9053 14.8752 29.5629 14.9386C29.8138 14.9628 30.0399 14.9021 30.184 14.7717C30.398 14.578 30.4104 14.3521 30.4098 10.6364C30.4092 6.76613 30.405 6.6995 30.1425 6.29024C29.6865 5.57933 24.3336 0.381898 23.8491 0.179525C23.4629 0.0181261 22.0832 -0.00360752 12.5065 0.000430426C3.66184 0.00423085 1.53644 0.0351093 1.2473 0.164086ZM26.1339 4.33065L28.3292 6.52777H26.103H23.8769V4.33065C23.8769 3.12224 23.8908 2.13353 23.9078 2.13353C23.9248 2.13353 24.9265 3.12224 26.1339 4.33065ZM9.97032 16.8975C9.68071 17.0503 9.28348 17.4029 9.08747 17.6811L8.7311 18.1867L8.69689 24.3226C8.65852 31.2296 8.64688 31.1234 9.51951 31.87C9.77955 32.0926 10.2267 32.3337 10.5131 32.4058C11.2453 32.5901 35.4394 32.5901 36.1716 32.4058C36.458 32.3337 36.9051 32.0926 37.1652 31.87C38.0355 31.1253 38.0251 31.2204 37.9872 24.4016C37.9545 18.5236 37.9462 18.3307 37.7054 17.8696C37.5689 17.6084 37.2303 17.2343 36.9528 17.0383L36.4483 16.682L23.4725 16.6508L10.4968 16.6195L9.97032 16.8975ZM36.1938 18.4247L36.4687 18.6831V24.528C36.4687 30.1057 36.4584 30.3856 36.2416 30.6532L36.0145 30.9336L23.4085 30.9648L10.8023 30.9962L10.5092 30.7031L10.216 30.41V24.5257C10.216 18.7999 10.2224 18.6352 10.4536 18.4041C10.6882 18.1695 10.8495 18.1666 23.305 18.1666H35.9188L36.1938 18.4247ZM13.3045 21.2544C13.0779 21.481 13.067 21.6502 13.067 24.9176C13.067 28.0857 13.0833 28.3582 13.2842 28.5399C13.5692 28.7978 13.9326 28.7893 14.1771 28.5193C14.3296 28.3509 14.3737 28.0606 14.3737 27.2257V26.1493L15.71 26.1018C16.7017 26.0667 17.1537 25.9985 17.4622 25.8377C18.4245 25.3359 18.8877 24.5994 18.8877 23.5712C18.8877 22.7362 18.6824 22.243 18.1349 21.7623C17.4972 21.2026 16.7174 21.0169 15.0054 21.0169C13.7005 21.0169 13.5165 21.0425 13.3045 21.2544ZM20.1534 21.2341C19.9801 21.4255 19.9568 21.8545 19.9568 24.8564C19.9568 29.0194 19.8324 28.7365 21.6631 28.7365C23.7367 28.7365 24.7482 28.4313 25.6447 27.5348C26.3374 26.8424 26.6414 26.1311 26.701 25.0633C26.7659 23.8988 26.4445 22.9838 25.714 22.2534C24.7628 21.3025 23.8337 21.0169 21.6919 21.0169C20.5428 21.0169 20.3217 21.0481 20.1534 21.2341ZM28.2312 21.2341C28.0577 21.4257 28.0346 21.8581 28.0346 24.9072C28.0346 28.6908 28.0531 28.7924 28.7298 28.7132C29.2062 28.6575 29.3376 28.2468 29.3395 26.8066L29.3413 25.5299H31.1147C32.5684 25.5299 32.9216 25.4963 33.0747 25.3433C33.3096 25.1084 33.3099 24.9395 33.0764 24.6063C32.8994 24.3534 32.8161 24.3422 31.1163 24.3422H29.3413V23.2734V22.2045H31.3423C33.13 22.2045 33.3642 22.1813 33.5399 21.9873C33.7968 21.7034 33.7879 21.5434 33.4989 21.2544C33.2769 21.0324 33.103 21.0169 30.8445 21.0169C28.6541 21.0169 28.4093 21.0372 28.2312 21.2341ZM16.4917 22.33C17.2816 22.4994 17.6206 22.871 17.6206 23.5678C17.6206 24.5535 17.0134 24.9361 15.4487 24.9361H14.3737V23.5703V22.2045H15.14C15.5614 22.2045 16.1696 22.261 16.4917 22.33ZM24.0826 22.5804C24.4151 22.7514 24.7937 23.0795 25.0043 23.3791C25.3317 23.8447 25.3618 23.9697 25.3618 24.8668C25.3618 25.7523 25.329 25.8935 25.0198 26.34C24.5142 27.07 23.7039 27.4259 22.3472 27.5138L21.2635 27.584V24.8781V22.1721L22.3909 22.2311C23.2745 22.2773 23.6404 22.3528 24.0826 22.5804Z" fill="white"/>
</svg>
