<svg width="32" height="31" viewBox="0 0 52 51" fill="none" xmlns="http://www.w3.org/2000/svg">
<path d="M0.333496 50.3332C0.333496 45.3825 2.30016 40.6346 5.80084 37.1339C9.30152 33.6332 14.0495 31.6666 19.0002 31.6666C23.9509 31.6666 28.6988 33.6332 32.1995 37.1339C35.7002 40.6346 37.6668 45.3825 37.6668 50.3332H33.0002C33.0002 46.6202 31.5252 43.0592 28.8997 40.4337C26.2741 37.8082 22.7132 36.3332 19.0002 36.3332C15.2871 36.3332 11.7262 37.8082 9.10067 40.4337C6.47516 43.0592 5.00016 46.6202 5.00016 50.3332H0.333496ZM19.0002 29.3332C11.2652 29.3332 5.00016 23.0682 5.00016 15.3332C5.00016 7.59822 11.2652 1.33322 19.0002 1.33322C26.7352 1.33322 33.0002 7.59822 33.0002 15.3332C33.0002 23.0682 26.7352 29.3332 19.0002 29.3332ZM19.0002 24.6666C24.1568 24.6666 28.3335 20.4899 28.3335 15.3332C28.3335 10.1766 24.1568 5.99989 19.0002 5.99989C13.8435 5.99989 9.66683 10.1766 9.66683 15.3332C9.66683 20.4899 13.8435 24.6666 19.0002 24.6666ZM48.2788 0.829224C50.5146 5.33682 51.6744 10.3016 51.6668 15.3332C51.6668 20.5436 50.4465 25.4692 48.2788 29.8372L44.4405 27.0466C46.1327 23.3738 47.006 19.377 47.0002 15.3332C47.0002 11.1519 46.0832 7.18289 44.4405 3.61989L48.2788 0.829224ZM40.5742 6.42922C41.7395 9.25293 42.3373 12.2785 42.3335 15.3332C42.3373 18.3879 41.7395 21.4135 40.5742 24.2372L36.6612 21.3906C37.3289 19.4409 37.6687 17.394 37.6668 15.3332C37.6695 13.2725 37.3304 11.2257 36.6635 9.27589L40.5742 6.42922Z" fill="white"/>
</svg>

