<svg width="56" height="56" viewBox="0 0 56 56" fill="none" xmlns="http://www.w3.org/2000/svg">
<circle cx="28" cy="28" r="27" fill="white" stroke="#27B5DA" stroke-width="2"/>
<path d="M21.5332 35.8555C22.709 35.8008 23.2969 35.3906 23.2969 34.625V32.1641C23.2969 31.5169 22.7135 31.1204 21.5469 30.9746V27.9258C25.2109 27.9987 27.043 29.4115 27.043 32.1641V34.8984C27.043 37.724 25.3932 39.1367 22.0938 39.1367H21.5332V35.8555ZM15.0938 26.6953V23.9609C15.0938 21.1354 16.7435 19.7227 20.043 19.7227H20.4805L20.4531 23.0039C19.3776 23.0951 18.8398 23.5052 18.8398 24.2344V26.6953C18.8398 27.3242 19.3822 27.7207 20.4668 27.8848L20.4395 30.9199C16.8757 30.8105 15.0938 29.4023 15.0938 26.6953ZM21.5605 19.7227H27.0566L26.9062 23.0039H21.5605V19.7227ZM20.4258 39.1367H15.0938L15.2441 35.8555H20.4258V39.1367ZM34.8348 19.7227H37.7059C41.0054 19.7227 42.6552 21.1354 42.6552 23.9609V27.5156C42.6552 30.1497 41.0054 31.5625 37.7059 31.7539H34.8348V28.4727H37.0223C38.2802 28.4727 38.9091 28.0625 38.9091 27.2422V24.2344C38.9091 23.4141 38.2802 23.0039 37.0223 23.0039H34.8348V19.7227ZM33.7684 19.7227V39.1367H30.0223V19.7227H33.7684Z" fill="#27B5DA"/>
</svg>
